{
    "asset" : {
        "generator" : "Khronos glTF Blender I/O v1.2.75",
        "version" : "2.0"
    },
    "scene" : 0,
    "scenes" : [
        {
            "extras" : {
                "glTF2ExportSettings" : {
                    "export_cameras" : 1,
                    "export_extras" : 1,
                    "export_format" : "GLTF_SEPARATE",
                    "export_lights" : 1,
                    "export_texture_dir" : "textures"
                }
            },
            "name" : "Scene",
            "nodes" : [
                0,
                1,
                2,
                3,
                4,
                6
            ]
        }
    ],
    "nodes" : [
        {
            "mesh" : 0,
            "name" : "Tree",
            "rotation" : [
                0.3540812134742737,
                0.6120674014091492,
                -0.6120673418045044,
                0.35408127307891846
            ],
            "scale" : [
                0.009999999776482582,
                0.009999999776482582,
                0.009999999776482582
            ],
            "translation" : [
                -0.10538223385810852,
                0.19731269776821136,
                0.3293037414550781
            ]
        },
        {
            "mesh" : 1,
            "name" : "Green_platform",
            "rotation" : [
                0,
                0.7653548121452332,
                0,
                0.6436086297035217
            ],
            "scale" : [
                0.009999999776482582,
                0.009999999776482582,
                0.009999999776482582
            ],
            "translation" : [
                -0.01754789426922798,
                0.16460935771465302,
                -0.055641382932662964
            ]
        },
        {
            "mesh" : 2,
            "name" : "Island",
            "rotation" : [
                -0.28334739804267883,
                -0.6478536128997803,
                -0.6478536128997803,
                0.28334730863571167
            ],
            "scale" : [
                0.009999999776482582,
                0.009999999776482582,
                0.009999999776482582
            ],
            "translation" : [
                0.03225453197956085,
                -0.2859664261341095,
                -0.04436253383755684
            ]
        },
        {
            "mesh" : 3,
            "name" : "Mill",
            "rotation" : [
                0.686397135257721,
                0.16987942159175873,
                -0.16987943649291992,
                0.6863970756530762
            ],
            "scale" : [
                0.009999999776482582,
                0.009999999776482582,
                0.009999999776482582
            ],
            "translation" : [
                0.07664263248443604,
                0.5582965016365051,
                -0.23244524002075195
            ]
        },
        {
            "mesh" : 4,
            "name" : "propeller",
            "rotation" : [
                0.3613719046115875,
                0.6031420230865479,
                -0.6077913641929626,
                0.3690795302391052
            ],
            "scale" : [
                0.009999999776482582,
                0.009999999776482582,
                0.009999999776482582
            ],
            "translation" : [
                -0.0674794614315033,
                0.8359634876251221,
                -0.15669505298137665
            ]
        },
        {
            "camera" : 0,
            "name" : "CINEMA_4D_Editor_Orientation",
            "rotation" : [
                -0.7071067690849304,
                0,
                0,
                0.7071067690849304
            ]
        },
        {
            "children" : [
                5
            ],
            "name" : "CINEMA_4D_Editor",
            "rotation" : [
                0.4187585711479187,
                -0.5681719779968262,
                0.41381415724754333,
                0.5749605894088745
            ],
            "scale" : [
                0.009999999776482582,
                0.009999999776482582,
                0.009999999776482582
            ],
            "translation" : [
                -3.0423080921173096,
                1.2846401929855347,
                -0.017755581066012383
            ]
        }
    ],
    "cameras" : [
        {
            "name" : "Untitled",
            "perspective" : {
                "yfov" : 0.5483348957076358,
                "zfar" : 100,
                "znear" : 9.999999747378752e-06
            },
            "type" : "perspective"
        }
    ],
    "materials" : [
        {
            "doubleSided" : true,
            "name" : "wood",
            "pbrMetallicRoughness" : {}
        },
        {
            "doubleSided" : true,
            "name" : "foliage",
            "pbrMetallicRoughness" : {}
        },
        {
            "doubleSided" : true,
            "name" : "platform",
            "pbrMetallicRoughness" : {}
        },
        {
            "doubleSided" : true,
            "name" : "ground",
            "pbrMetallicRoughness" : {}
        },
        {
            "doubleSided" : true,
            "name" : "facade",
            "pbrMetallicRoughness" : {}
        },
        {
            "doubleSided" : true,
            "name" : "facade1",
            "pbrMetallicRoughness" : {}
        }
    ],
    "meshes" : [
        {
            "name" : "Untitled.004",
            "primitives" : [
                {
                    "attributes" : {
                        "POSITION" : 0,
                        "NORMAL" : 1,
                        "TEXCOORD_0" : 2
                    },
                    "indices" : 3,
                    "material" : 0
                },
                {
                    "attributes" : {
                        "POSITION" : 4,
                        "NORMAL" : 5,
                        "TEXCOORD_0" : 6
                    },
                    "indices" : 7,
                    "material" : 1
                }
            ]
        },
        {
            "name" : "Untitled.002",
            "primitives" : [
                {
                    "attributes" : {
                        "POSITION" : 8,
                        "NORMAL" : 9,
                        "TEXCOORD_0" : 10
                    },
                    "indices" : 11,
                    "material" : 2
                }
            ]
        },
        {
            "name" : "Untitled.003",
            "primitives" : [
                {
                    "attributes" : {
                        "POSITION" : 12,
                        "NORMAL" : 13,
                        "TEXCOORD_0" : 14
                    },
                    "indices" : 15,
                    "material" : 3
                }
            ]
        },
        {
            "name" : "Untitled.001",
            "primitives" : [
                {
                    "attributes" : {
                        "POSITION" : 16,
                        "NORMAL" : 17,
                        "TEXCOORD_0" : 18
                    },
                    "indices" : 19,
                    "material" : 4
                },
                {
                    "attributes" : {
                        "POSITION" : 20,
                        "NORMAL" : 21,
                        "TEXCOORD_0" : 22
                    },
                    "indices" : 23,
                    "material" : 5
                }
            ]
        },
        {
            "name" : "Untitled",
            "primitives" : [
                {
                    "attributes" : {
                        "POSITION" : 24,
                        "NORMAL" : 25,
                        "TEXCOORD_0" : 26
                    },
                    "indices" : 27,
                    "material" : 3
                },
                {
                    "attributes" : {
                        "POSITION" : 28,
                        "NORMAL" : 29,
                        "TEXCOORD_0" : 30
                    },
                    "indices" : 31,
                    "material" : 5
                }
            ]
        }
    ],
    "accessors" : [
        {
            "bufferView" : 0,
            "componentType" : 5126,
            "count" : 72,
            "max" : [
                6.641221046447754,
                10.153261184692383,
                0.18842050433158875
            ],
            "min" : [
                -4.924267292022705,
                -9.97599983215332,
                -23.31625747680664
            ],
            "type" : "VEC3"
        },
        {
            "bufferView" : 1,
            "componentType" : 5126,
            "count" : 72,
            "type" : "VEC3"
        },
        {
            "bufferView" : 2,
            "componentType" : 5126,
            "count" : 72,
            "type" : "VEC2"
        },
        {
            "bufferView" : 3,
            "componentType" : 5123,
            "count" : 108,
            "type" : "SCALAR"
        },
        {
            "bufferView" : 4,
            "componentType" : 5126,
            "count" : 2352,
            "max" : [
                19.47820472717285,
                26.712648391723633,
                -9.212320327758789
            ],
            "min" : [
                -17.0523681640625,
                -23.989776611328125,
                -42.08319854736328
            ],
            "type" : "VEC3"
        },
        {
            "bufferView" : 5,
            "componentType" : 5126,
            "count" : 2352,
            "type" : "VEC3"
        },
        {
            "bufferView" : 6,
            "componentType" : 5126,
            "count" : 2352,
            "type" : "VEC2"
        },
        {
            "bufferView" : 7,
            "componentType" : 5123,
            "count" : 3528,
            "type" : "SCALAR"
        },
        {
            "bufferView" : 8,
            "componentType" : 5126,
            "count" : 84,
            "max" : [
                51.27503204345703,
                3.975393533706665,
                49.31048583984375
            ],
            "min" : [
                -51.27503204345703,
                -3.975393533706665,
                -49.31048583984375
            ],
            "type" : "VEC3"
        },
        {
            "bufferView" : 9,
            "componentType" : 5126,
            "count" : 84,
            "type" : "VEC3"
        },
        {
            "bufferView" : 10,
            "componentType" : 5126,
            "count" : 84,
            "type" : "VEC2"
        },
        {
            "bufferView" : 11,
            "componentType" : 5123,
            "count" : 180,
            "type" : "SCALAR"
        },
        {
            "bufferView" : 12,
            "componentType" : 5126,
            "count" : 469,
            "max" : [
                51.647335052490234,
                55.21270751953125,
                53.349082946777344
            ],
            "min" : [
                -51.647335052490234,
                -55.21270751953125,
                -53.349082946777344
            ],
            "type" : "VEC3"
        },
        {
            "bufferView" : 13,
            "componentType" : 5126,
            "count" : 469,
            "type" : "VEC3"
        },
        {
            "bufferView" : 14,
            "componentType" : 5126,
            "count" : 469,
            "type" : "VEC2"
        },
        {
            "bufferView" : 15,
            "componentType" : 5123,
            "count" : 645,
            "type" : "SCALAR"
        },
        {
            "bufferView" : 16,
            "componentType" : 5126,
            "count" : 212,
            "max" : [
                19.148300170898438,
                19.148300170898438,
                39.13275146484375
            ],
            "min" : [
                -19.148300170898438,
                -19.148300170898438,
                -39.13275146484375
            ],
            "type" : "VEC3"
        },
        {
            "bufferView" : 17,
            "componentType" : 5126,
            "count" : 212,
            "type" : "VEC3"
        },
        {
            "bufferView" : 18,
            "componentType" : 5126,
            "count" : 212,
            "type" : "VEC2"
        },
        {
            "bufferView" : 19,
            "componentType" : 5123,
            "count" : 324,
            "type" : "SCALAR"
        },
        {
            "bufferView" : 20,
            "componentType" : 5126,
            "count" : 46,
            "max" : [
                19.148300170898438,
                19.148300170898438,
                39.13275146484375
            ],
            "min" : [
                -19.148300170898438,
                -19.148300170898438,
                -21.1347599029541
            ],
            "type" : "VEC3"
        },
        {
            "bufferView" : 21,
            "componentType" : 5126,
            "count" : 46,
            "type" : "VEC3"
        },
        {
            "bufferView" : 22,
            "componentType" : 5126,
            "count" : 46,
            "type" : "VEC2"
        },
        {
            "bufferView" : 23,
            "componentType" : 5123,
            "count" : 72,
            "type" : "SCALAR"
        },
        {
            "bufferView" : 24,
            "componentType" : 5126,
            "count" : 40,
            "max" : [
                20.347558975219727,
                -1.3403810262680054,
                21.029830932617188
            ],
            "min" : [
                -20.347558975219727,
                -1.3403810262680054,
                -17.721527099609375
            ],
            "type" : "VEC3"
        },
        {
            "bufferView" : 25,
            "componentType" : 5126,
            "count" : 40,
            "type" : "VEC3"
        },
        {
            "bufferView" : 26,
            "componentType" : 5126,
            "count" : 40,
            "type" : "VEC2"
        },
        {
            "bufferView" : 27,
            "componentType" : 5123,
            "count" : 90,
            "type" : "SCALAR"
        },
        {
            "bufferView" : 28,
            "componentType" : 5126,
            "count" : 205,
            "max" : [
                30.549083709716797,
                1.3403810262680054,
                29.053903579711914
            ],
            "min" : [
                -30.549083709716797,
                -1.3403810262680054,
                -29.053903579711914
            ],
            "type" : "VEC3"
        },
        {
            "bufferView" : 29,
            "componentType" : 5126,
            "count" : 205,
            "type" : "VEC3"
        },
        {
            "bufferView" : 30,
            "componentType" : 5126,
            "count" : 205,
            "type" : "VEC2"
        },
        {
            "bufferView" : 31,
            "componentType" : 5123,
            "count" : 468,
            "type" : "SCALAR"
        }
    ],
    "bufferViews" : [
        {
            "buffer" : 0,
            "byteLength" : 864,
            "byteOffset" : 0
        },
        {
            "buffer" : 0,
            "byteLength" : 864,
            "byteOffset" : 864
        },
        {
            "buffer" : 0,
            "byteLength" : 576,
            "byteOffset" : 1728
        },
        {
            "buffer" : 0,
            "byteLength" : 216,
            "byteOffset" : 2304
        },
        {
            "buffer" : 0,
            "byteLength" : 28224,
            "byteOffset" : 2520
        },
        {
            "buffer" : 0,
            "byteLength" : 28224,
            "byteOffset" : 30744
        },
        {
            "buffer" : 0,
            "byteLength" : 18816,
            "byteOffset" : 58968
        },
        {
            "buffer" : 0,
            "byteLength" : 7056,
            "byteOffset" : 77784
        },
        {
            "buffer" : 0,
            "byteLength" : 1008,
            "byteOffset" : 84840
        },
        {
            "buffer" : 0,
            "byteLength" : 1008,
            "byteOffset" : 85848
        },
        {
            "buffer" : 0,
            "byteLength" : 672,
            "byteOffset" : 86856
        },
        {
            "buffer" : 0,
            "byteLength" : 360,
            "byteOffset" : 87528
        },
        {
            "buffer" : 0,
            "byteLength" : 5628,
            "byteOffset" : 87888
        },
        {
            "buffer" : 0,
            "byteLength" : 5628,
            "byteOffset" : 93516
        },
        {
            "buffer" : 0,
            "byteLength" : 3752,
            "byteOffset" : 99144
        },
        {
            "buffer" : 0,
            "byteLength" : 1290,
            "byteOffset" : 102896
        },
        {
            "buffer" : 0,
            "byteLength" : 2544,
            "byteOffset" : 104188
        },
        {
            "buffer" : 0,
            "byteLength" : 2544,
            "byteOffset" : 106732
        },
        {
            "buffer" : 0,
            "byteLength" : 1696,
            "byteOffset" : 109276
        },
        {
            "buffer" : 0,
            "byteLength" : 648,
            "byteOffset" : 110972
        },
        {
            "buffer" : 0,
            "byteLength" : 552,
            "byteOffset" : 111620
        },
        {
            "buffer" : 0,
            "byteLength" : 552,
            "byteOffset" : 112172
        },
        {
            "buffer" : 0,
            "byteLength" : 368,
            "byteOffset" : 112724
        },
        {
            "buffer" : 0,
            "byteLength" : 144,
            "byteOffset" : 113092
        },
        {
            "buffer" : 0,
            "byteLength" : 480,
            "byteOffset" : 113236
        },
        {
            "buffer" : 0,
            "byteLength" : 480,
            "byteOffset" : 113716
        },
        {
            "buffer" : 0,
            "byteLength" : 320,
            "byteOffset" : 114196
        },
        {
            "buffer" : 0,
            "byteLength" : 180,
            "byteOffset" : 114516
        },
        {
            "buffer" : 0,
            "byteLength" : 2460,
            "byteOffset" : 114696
        },
        {
            "buffer" : 0,
            "byteLength" : 2460,
            "byteOffset" : 117156
        },
        {
            "buffer" : 0,
            "byteLength" : 1640,
            "byteOffset" : 119616
        },
        {
            "buffer" : 0,
            "byteLength" : 936,
            "byteOffset" : 121256
        }
    ],
    "buffers" : [
        {
            "byteLength" : 122192,
            "uri" : "Low Poly Mill.bin"
        }
    ]
}
